<?xml version="1.0" encoding="iso-8859-1"?>
<!-- Generator: Adobe Illustrator 19.0.0, SVG Export Plug-In . SVG Version: 6.00 Build 0)  -->
<svg version="1.1" id="book" xmlns="http://www.w3.org/2000/svg" xmlns:xlink="http://www.w3.org/1999/xlink" x="0px" y="0px"
	 viewBox="0 0 512 512" style="enable-background:new 0 0 512.009 512.009;" xml:space="preserve" fill="black">
<g>
	<g>
		<g>
			<path d="M34.556,380.885c-3.328-3.337-8.73-3.337-12.066,0c-3.328,3.337-3.328,8.738,0,12.066l24.149,24.141
				c1.664,1.673,3.849,2.5,6.033,2.5c2.176,0,4.361-0.828,6.033-2.5c3.328-3.328,3.328-8.73,0-12.066L34.556,380.885z"/>
			<path d="M51.204,435.2c0-4.71-3.823-8.533-8.533-8.533H8.538c-4.719,0-8.533,3.823-8.533,8.533c0,4.719,3.814,8.533,8.533,8.533
				h34.133C47.381,443.733,51.204,439.919,51.204,435.2z"/>
			<path d="M46.63,453.308l-24.149,24.141c-3.328,3.328-3.328,8.73,0,12.066c1.673,1.664,3.857,2.5,6.033,2.5
				c2.185,0,4.369-0.836,6.042-2.5l24.141-24.141c3.328-3.328,3.328-8.73,0-12.066C55.36,449.971,49.958,449.971,46.63,453.308z"/>
			<path d="M76.796,460.809c-4.71,0-8.533,3.823-8.533,8.533l-0.009,34.133c0,4.719,3.814,8.533,8.533,8.533
				c4.71,0,8.533-3.814,8.533-8.533l0.009-34.133C85.329,464.632,81.506,460.809,76.796,460.809z"/>
			<path d="M503.471,0h-204.8c-2.961,0-5.7,1.536-7.262,4.045c-1.562,2.517-1.698,5.666-0.375,8.311
				c1.417,2.833,35.354,70.093,86.938,121.677c51.584,51.593,118.835,85.513,121.677,86.938c1.212,0.597,2.509,0.896,3.823,0.896
				c1.553,0,3.115-0.427,4.48-1.271c2.517-1.553,4.053-4.301,4.053-7.262V8.533C512.004,3.823,508.181,0,503.471,0z
				 M494.938,199.049c-21.769-12.203-68.13-40.311-104.9-77.082s-64.879-83.123-77.082-104.9h181.982V199.049z"/>
			<path d="M106.961,453.316c-3.337-3.336-8.738-3.336-12.066,0c-3.337,3.328-3.337,8.73,0,12.066l24.132,24.141
				c1.664,1.664,3.849,2.5,6.033,2.5c2.185,0,4.369-0.836,6.033-2.5c3.337-3.328,3.337-8.73,0-12.066L106.961,453.316z"/>
			<path d="M429.171,207.3L215.863,420.608c-2.483,2.449-7.723,6.059-11.059,6.059c-3.345,0-8.576-3.61-11.034-6.033l-45.167-45.167
				h90.334c4.71,0,8.533-3.814,8.533-8.533c0-4.71-3.823-8.533-8.533-8.533H131.537l-40.141-40.141
				c-2.441-2.483-6.059-7.714-6.059-11.059h221.867c4.71,0,8.533-3.814,8.533-8.533c0-4.71-3.823-8.533-8.533-8.533H97.404
				l51.2-51.2h226.867c4.71,0,8.533-3.814,8.533-8.533c0-4.71-3.823-8.533-8.533-8.533H165.67l51.2-51.2h158.601
				c4.71,0,8.533-3.814,8.533-8.533c0-4.71-3.823-8.533-8.533-8.533H233.937l70.767-70.767c3.328-3.328,3.328-8.73,0-12.066
				c-3.336-3.328-8.738-3.328-12.066,0L207.313,156.1c-0.009,0-0.009,0.009-0.017,0.009l-68.25,68.258
				c-0.008,0-0.008,0.009-0.017,0.009L79.305,284.1c-1.135,1.135-11.034,11.375-11.034,23.1c0,11.733,9.899,21.973,11.034,23.1
				l42.658,42.658c0.008,0.009,0.008,0.009,0.017,0.017l2.492,2.492l-53.7,53.7c-3.336,3.337-3.336,8.738,0,12.066
				c1.664,1.673,3.849,2.5,6.033,2.5c2.185,0,4.361-0.828,6.033-2.5l53.7-53.7l45.167,45.167c1.118,1.135,11.366,11.034,23.1,11.034
				s21.973-9.899,23.1-11.034l213.333-213.333c3.328-3.328,3.328-8.73,0-12.066C437.901,203.972,432.499,203.972,429.171,207.3z"/>
		</g>
	</g>
</g>
</svg>
